<svg xmlns="http://www.w3.org/2000/svg" role="img" viewBox="0 0 24 24" fill="#0A66C2">
  <title>LinkedIn</title>
  <path d="M20.447 20.452h-3.554v-5.569c0-1.327-.024-3.037-1.851-3.037-1.853 0-2.136 1.447-2.136 2.942v5.664H9.351V9h3.414v1.561h.049c.476-.899 1.637-1.85 3.37-1.85 3.6 0 4.267 2.368 4.267 5.452v6.289zM5.337 7.433a2.062 2.062 0 1 1 0-4.124 2.062 2.062 0 0 1 0 4.124zM6.956 20.452H3.72V9h3.237v11.452zM22.225 0H1.771C.792 0 0 .774 0 1.729v20.542C0 23.225.792 24 1.771 24h20.451C23.2 24 24 23.225 24 22.271V1.729C24 .774 23.2 0 22.222 0z"></path>
</svg>
